<svg id="Layer_1" data-name="Layer 1" xmlns="http://www.w3.org/2000/svg" xmlns:xlink="http://www.w3.org/1999/xlink" viewBox="0 0 1383.85 306.04"><defs><style>.cls-1,.cls-2{fill:none;}.cls-2{stroke:#000;stroke-linejoin:round;}.cls-3{fill:#8c9fcb;}.cls-4{fill:#f98b61;}.cls-5{fill:#65c0a2;}.cls-13,.cls-16,.cls-17,.cls-18,.cls-6{font-size:11px;}.cls-11,.cls-12,.cls-13,.cls-16,.cls-17,.cls-18,.cls-6{fill:#fff;font-family:Helvetica, Helvetica;}.cls-36,.cls-7,.cls-8{font-size:14px;}.cls-36,.cls-7{fill:#4d4d4d;}.cls-20,.cls-36,.cls-7,.cls-9{font-family:TimesNewRomanPSMT, Times New Roman;}.cls-8{font-family:TimesNewRomanPS-BoldMT, Times New Roman;font-weight:700;}.cls-20,.cls-9{font-size:12px;}.cls-10{fill:#e588c1;}.cls-11,.cls-12{font-size:11.09px;}.cls-12{letter-spacing:3.16em;}.cls-13{letter-spacing:25.99em;}.cls-14{fill:#a4d753;}.cls-15{clip-path:url(#clip-path);}.cls-16{letter-spacing:10.42em;}.cls-17{letter-spacing:13.06em;}.cls-18{letter-spacing:8.06em;}.cls-19{fill:#1f77b4;}.cls-20,.cls-25,.cls-36{isolation:isolate;}.cls-21{fill:#ff7f0e;}.cls-22{fill:#2ca02c;}.cls-23{fill:#d62728;}.cls-24{fill:#9467bd;}.cls-26{fill:#8c564b;}.cls-27{fill:#e377c2;}.cls-28{fill:#7f7f7f;}.cls-29{fill:#bcbd22;}.cls-30{fill:#17becf;}.cls-31{fill:#57a9e2;}.cls-32{fill:#ffb574;}.cls-33{fill:#5fd35f;}.cls-34{fill:#e77c7c;}.cls-35{fill:#c6aedc;}</style><clipPath id="clip-path" transform="translate(-25.91 -34.54)"><rect class="cls-1" x="110" y="159.14" width="744" height="57.88"/></clipPath></defs><title>ENCODE_ROADMAP_SUMMARY</title><polyline class="cls-2" points="1312.59 84.46 1305.59 84.46 1305.59 145.97 1269.59 145.97"/><polyline class="cls-2" points="1329.59 169.96 1317.59 169.96 1317.59 185.96 1274.09 185.96"/><polyline class="cls-2" points="1319.59 112.46 1309.59 112.46 1309.59 159.96 1273.59 159.96"/><polyline class="cls-2" points="1323.59 143.46 1312.59 143.46 1312.59 171.96 1276.59 171.96"/><polyline class="cls-2" points="1320.09 198.46 1270.09 198.46 1270.09 156.46"/><polyline class="cls-2" points="1284.59 217.46 1257.09 217.46 1257.09 175.46"/><polyline class="cls-2" points="1247.09 235.46 1239.09 235.46 1239.09 193.46"/><polyline class="cls-2" points="1227.09 263.46 1219.09 263.46 1219.09 221.46"/><rect class="cls-3" x="84.71" width="117.87" height="52.09"/><rect class="cls-4" x="202.58" width="498.68" height="52.09"/><rect class="cls-5" x="701.26" width="126.94" height="52.09"/><text class="cls-6" transform="translate(137.52 29.98)">26</text><text class="cls-6" transform="translate(442.74 29.98)">110</text><text class="cls-6" transform="translate(759.73 29.98)">28</text><text class="cls-7" transform="translate(15.17 29.27)">Karyotype</text><text class="cls-7" transform="translate(70.95 267.37)">0.00</text><text class="cls-7" transform="translate(256.81 267.37)">0.25</text><text class="cls-7" transform="translate(442.68 267.37)">0.50</text><text class="cls-7" transform="translate(628.56 267.37)">0.75</text><text class="cls-7" transform="translate(814.42 267.37)">1.00</text><text class="cls-8" transform="translate(431.58 301.75)">Fraction</text><rect class="cls-5" x="843.96" y="9.93" width="15.86" height="15.86"/><rect class="cls-4" x="843.96" y="27.21" width="15.86" height="15.86"/><rect class="cls-3" x="929.96" y="9.49" width="15.86" height="15.86"/><text class="cls-9" transform="translate(863.41 21.09)">cancer</text><text class="cls-9" transform="translate(863.41 38.37)">normal</text><text class="cls-9" transform="translate(949.41 20.65)">unspecified</text><rect class="cls-10" x="85.09" y="63.54" width="81.55" height="52.51"/><rect class="cls-3" x="166.63" y="63.54" width="40.77" height="52.51"/><rect class="cls-4" x="207.41" y="63.54" width="49.83" height="52.51"/><rect class="cls-5" x="257.24" y="63.54" width="570.84" height="52.51"/><text class="cls-11" transform="translate(119.55 93.76) scale(1.02 1)">18</text><text class="cls-12" transform="translate(183.88 93.76) scale(1.02 1)">91</text><text class="cls-13" transform="translate(231.14 93.73) scale(1.02 1)">11</text><text class="cls-11" transform="translate(535.51 93.76) scale(1.02 1)">26</text><text class="cls-7" transform="translate(0 93.02)">Sample Type</text><rect class="cls-5" x="843.96" y="73.04" width="15.86" height="15.86"/><rect class="cls-4" x="843.96" y="90.32" width="15.86" height="15.86"/><rect class="cls-3" x="929.96" y="72.6" width="15.86" height="15.86"/><rect class="cls-10" x="929.96" y="89.88" width="15.86" height="15.86"/><text class="cls-9" transform="translate(863.41 84.21)">cell line</text><text class="cls-9" transform="translate(863.41 101.48)">other</text><text class="cls-9" transform="translate(949.41 83.77)">primary culture</text><text class="cls-9" transform="translate(949.41 101.04)">primary tissue</text><rect class="cls-14" x="84.09" y="127.5" width="299.41" height="52.09"/><rect class="cls-10" x="383.5" y="127.5" width="36.3" height="52.09"/><rect class="cls-3" x="419.8" y="127.5" width="208.69" height="52.09"/><g class="cls-15"><rect class="cls-4" x="628.48" y="127.5" width="99.81" height="52.09"/><rect class="cls-5" x="728.29" y="127.5" width="99.81" height="52.09"/></g><text class="cls-6" transform="translate(227.74 157.48) scale(0.99 1)">66</text><text class="cls-16" transform="translate(398.62 157.48) scale(0.99 1)">84</text><text class="cls-17" transform="translate(524.14 157.48) scale(0.99 1)">62</text><text class="cls-18" transform="translate(678.76 157.48) scale(0.99 1)">22</text><text class="cls-6" transform="translate(778.19 157.48) scale(0.99 1)">2</text><text class="cls-7" transform="translate(29.18 156.77)">Lineage</text><rect class="cls-5" x="843.96" y="128.15" width="15.86" height="15.86"/><rect class="cls-4" x="843.96" y="145.71" width="15.86" height="15.86"/><rect class="cls-3" x="929.96" y="127.71" width="15.86" height="15.86"/><rect class="cls-10" x="929.96" y="144.99" width="15.86" height="15.86"/><rect class="cls-14" x="843.96" y="163.27" width="15.86" height="15.86"/><text class="cls-9" transform="translate(863.41 139.32)">ectoderm</text><text class="cls-9" transform="translate(863.41 156.87)">endoderm</text><text class="cls-9" transform="translate(949.41 138.87)">mesoderm</text><text class="cls-9" transform="translate(949.41 156.15)">other</text><text class="cls-9" transform="translate(863.41 174.43)">unspecified</text><rect class="cls-4" x="85.09" y="191.24" width="711.29" height="52.09"/><rect class="cls-5" x="796.38" y="191.24" width="31.71" height="52.09"/><text class="cls-6" transform="translate(431.64 221.23) scale(0.99 1)">15</text><text class="cls-6" transform="translate(443.76 221.23) scale(0.99 1)">7</text><text class="cls-6" transform="translate(809.21 221.23) scale(0.99 1)">7</text><text class="cls-7" transform="translate(16.73 220.52)">Treatment</text><rect class="cls-5" x="843.96" y="200.82" width="15.86" height="15.86"/><rect class="cls-4" x="843.96" y="218.1" width="15.86" height="15.86"/><text class="cls-9" transform="translate(863.41 211.98)">treated</text><text class="cls-9" transform="translate(863.41 229.27)">untreated</text><path class="cls-19" d="M1226.57,159.57V59.06a100.52,100.52,0,0,1,99.34,115.86Z" transform="translate(-25.91 -34.54)"/><text class="cls-20" transform="translate(1241.76 73.46)">other<tspan x="0" y="14.4">27.4%</tspan></text><path class="cls-21" d="M1226.57,159.57l-88.31-48a100.52,100.52,0,0,1,88.31-52.5Z" transform="translate(-25.91 -34.54)"/><text class="cls-20" transform="translate(1145.32 54.89)">blood<tspan x="0" y="14.4">17.1%</tspan></text><path class="cls-22" d="M1226.57,159.57l-100.22,7.69a100.52,100.52,0,0,1,11.92-55.71Z" transform="translate(-25.91 -34.54)"/><text class="cls-9" transform="translate(1106.39 106.77)">skin<tspan x="0" y="14.4">9.15%</tspan></text><path class="cls-23" d="M1226.57,159.57l-82.22,57.83a100.52,100.52,0,0,1-18-50.13Z" transform="translate(-25.91 -34.54)"/><text class="cls-20" transform="translate(1040.69 160.57)">blood vessel<tspan x="28.66" y="14.4">8.54%</tspan></text><path class="cls-24" d="M1226.57,159.57,1182,249.65a100.52,100.52,0,0,1-37.61-32.25Z" transform="translate(-25.91 -34.54)"/><g class="cls-25"><text class="cls-20" transform="translate(1082.32 209.23)">epithelium<tspan x="20.33" y="14.4">7.93%</tspan></text></g><path class="cls-26" d="M1226.57,159.57l-15.34,99.34a100.52,100.52,0,0,1-29.26-9.26Z" transform="translate(-25.91 -34.54)"/><g class="cls-25"><text class="cls-20" transform="translate(1148.2 231.43)">brain<tspan x="-6.34" y="14.4">4.88%</tspan></text></g><path class="cls-27" d="M1226.57,159.57l7.69,100.22a100.52,100.52,0,0,1-23-.88Z" transform="translate(-25.91 -34.54)"/><g class="cls-25"><text class="cls-20" transform="translate(1152.53 263.51)">muscle<tspan x="0" y="14.4">3.66%</tspan></text></g><path class="cls-28" d="M1226.57,159.57l30.33,95.83a100.52,100.52,0,0,1-22.63,4.39Z" transform="translate(-25.91 -34.54)"/><g class="cls-25"><text class="cls-20" transform="translate(1230.52 260.95)">liver<tspan x="0" y="14.4">3.66%</tspan></text></g><path class="cls-29" d="M1226.57,159.57l48,88.31a100.52,100.52,0,0,1-17.69,7.53Z" transform="translate(-25.91 -34.54)"/><g class="cls-25"><text class="cls-20" transform="translate(1251.17 231.87)">breast<tspan x="0" y="14.4">3.05%</tspan></text></g><path class="cls-30" d="M1226.57,159.57l64,77.55a100.52,100.52,0,0,1-15.93,10.76Z" transform="translate(-25.91 -34.54)"/><g class="cls-25"><text class="cls-20" transform="translate(1288.61 213.79)">lung<tspan x="0" y="14.4">3.05%</tspan></text></g><path class="cls-31" d="M1226.57,159.57l75,66.88a100.52,100.52,0,0,1-11.09,10.67Z" transform="translate(-25.91 -34.54)"/><g class="cls-25"><text class="cls-20" transform="translate(1323.39 193.08)">pancreas<tspan x="0" y="14.4">2.44%</tspan></text></g><path class="cls-32" d="M1226.57,159.57l84.37,54.64a100.52,100.52,0,0,1-9.33,12.24Z" transform="translate(-25.91 -34.54)"/><g class="cls-25"><text class="cls-20" transform="translate(1333.67 166.38)">prostate<tspan x="0" y="14.4">2.44%</tspan></text></g><path class="cls-33" d="M1226.57,159.57l91.72,41.12a100.52,100.52,0,0,1-7.35,13.52Z" transform="translate(-25.91 -34.54)"/><g class="cls-25"><text class="cls-20" transform="translate(1326.51 138.67)">esc_derived<tspan x="0" y="14.4">2.44%</tspan></text></g><path class="cls-34" d="M1226.57,159.57l96.92,26.64a100.52,100.52,0,0,1-5.2,14.48Z" transform="translate(-25.91 -34.54)"/><g class="cls-25"><text class="cls-20" transform="translate(1323.06 108.97)">heart<tspan x="0" y="14.4">2.44%</tspan></text></g><path class="cls-35" d="M1226.57,159.57l99.34,15.34a100.52,100.52,0,0,1-2.42,11.29Z" transform="translate(-25.91 -34.54)"/><g class="cls-25"><text class="cls-20" transform="translate(1315.42 80.26)">gi_intestine<tspan x="0" y="14.4">1.83%</tspan></text></g><text class="cls-36" transform="translate(1084.79 30.32)">Tissue</text><polyline class="cls-2" points="1189.09 267.46 1197.09 267.46 1197.09 225.46"/></svg>