<svg class="main-svg" xmlns="http://www.w3.org/2000/svg" xmlns:xlink="http://www.w3.org/1999/xlink" width="1000" height="1000" viewBox="0 0 1000 1000"><rect x="0" y="0" width="1000" height="1000" style="fill: rgb(255, 255, 255); fill-opacity: 1;"/><defs id="defs-db14b0"><g class="clips"/><g class="gradients"/></defs><g class="bglayer"/><g class="layer-below"><g class="imagelayer"/><g class="shapelayer"/></g><g class="cartesianlayer"/><g class="polarlayer"/><g class="ternarylayer"/><g class="geolayer"/><g class="pielayer"><g stroke-linejoin="round" class="trace" style="opacity: 1;"><g class="slice"><path class="surface" d="M500,475l0,-325a325,325 0 0 1 321.1911377286133,374.6110173711342Z" style="pointer-events: all; stroke-width: 0; fill: rgb(31, 119, 180); fill-opacity: 1; stroke: rgb(68, 68, 68); stroke-opacity: 1;"/><g class="slicetext"><text data-notex="1" class="slicetext" transform="translate(771.7584076515429,256.5517802543766)translate(-0.0546875,-3.296875)" text-anchor="middle" x="0" y="0" style="font-family: 'Open Sans', verdana, arial, sans-serif; font-size: 12px; fill: rgb(68, 68, 68); fill-opacity: 1; white-space: pre;"><tspan class="line" dy="0em" x="0" y="0">other</tspan><tspan class="line" dy="1.3em" x="0" y="0">27.4%</tspan></text></g></g><g class="slice"><path class="surface" d="M500,475l-285.5164815460563,-155.2589410164854a325,325 0 0 1 285.5164815460563,-169.7410589835146Z" style="pointer-events: all; stroke-width: 0; fill: rgb(255, 127, 14); fill-opacity: 1; stroke: rgb(68, 68, 68); stroke-opacity: 1;"/><g class="slicetext"><text data-notex="1" class="slicetext" transform="translate(308.88767917968914,183.59877014550113)translate(-0.0546875,-3.296875)" text-anchor="middle" x="0" y="0" style="font-family: 'Open Sans', verdana, arial, sans-serif; font-size: 12px; fill: rgb(68, 68, 68); fill-opacity: 1; white-space: pre;"><tspan class="line" dy="0em" x="0" y="0">blood</tspan><tspan class="line" dy="1.3em" x="0" y="0">17.1%</tspan></text></g></g><g class="slice"><path class="surface" d="M500,475l-324.0463853847156,24.878507171861123a325,325 0 0 1 38.52990383865932,-180.13744818834653Z" style="pointer-events: all; stroke-width: 0; fill: rgb(44, 160, 44); fill-opacity: 1; stroke: rgb(68, 68, 68); stroke-opacity: 1;"/><g class="slicetext"><text data-notex="1" class="slicetext" transform="translate(157.15733226116578,406.3098188637827)translate(-0.0546875,-3.296875)" text-anchor="middle" x="0" y="0" style="font-family: 'Open Sans', verdana, arial, sans-serif; font-size: 12px; fill: rgb(68, 68, 68); fill-opacity: 1; white-space: pre;"><tspan class="line" dy="0em" x="0" y="0">skin</tspan><tspan class="line" dy="1.3em" x="0" y="0">9.15%</tspan></text></g></g><g class="slice"><path class="surface" d="M500,475l-265.82704224918314,186.97856457105178a325,325 0 0 1 -58.21934313553248,-162.10005739919066Z" style="pointer-events: all; stroke-width: 0; fill: rgb(214, 39, 40); fill-opacity: 1; stroke: rgb(68, 68, 68); stroke-opacity: 1;"/><g class="slicetext"><text data-notex="1" class="slicetext" transform="translate(151.32479690664252,586.7174916190581)translate(0,-3.296875)" text-anchor="middle" x="0" y="0" style="font-family: 'Open Sans', verdana, arial, sans-serif; font-size: 12px; fill: rgb(68, 68, 68); fill-opacity: 1; white-space: pre;"><tspan class="line" dy="0em" x="0" y="0">blood vessel</tspan><tspan class="line" dy="1.3em" x="0" y="0">8.54%</tspan></text></g></g><g class="slice"><path class="surface" d="M500,475l-144.2089473067617,291.2538060123432a325,325 0 0 1 -121.61809494242144,-104.27524144129143Z" style="pointer-events: all; stroke-width: 0; fill: rgb(148, 103, 189); fill-opacity: 1; stroke: rgb(68, 68, 68); stroke-opacity: 1;"/><g class="slicetext"><text data-notex="1" class="slicetext" transform="translate(250.2844896024995,731.1194483034202)translate(-0.0078125,-3.296875)" text-anchor="middle" x="0" y="0" style="font-family: 'Open Sans', verdana, arial, sans-serif; font-size: 12px; fill: rgb(68, 68, 68); fill-opacity: 1; white-space: pre;"><tspan class="line" dy="0em" x="0" y="0">epithelium</tspan><tspan class="line" dy="1.3em" x="0" y="0">7.93%</tspan></text></g></g><g class="slice"><path class="surface" d="M500,475l-49.611017371134075,321.1911377286133a325,325 0 0 1 -94.59792993562763,-29.93733171627008Z" style="pointer-events: all; stroke-width: 0; fill: rgb(140, 86, 75); fill-opacity: 1; stroke: rgb(68, 68, 68); stroke-opacity: 1;"/><g class="slicetext"><text data-notex="1" class="slicetext" transform="translate(376.90955545656266,799.6671111934751)translate(-0.0546875,-3.296875)" text-anchor="middle" x="0" y="0" style="font-family: 'Open Sans', verdana, arial, sans-serif; font-size: 12px; fill: rgb(68, 68, 68); fill-opacity: 1; white-space: pre;"><tspan class="line" dy="0em" x="0" y="0">brain</tspan><tspan class="line" dy="1.3em" x="0" y="0">4.88%</tspan></text></g></g><g class="slice"><path class="surface" d="M500,475l24.8785071718611,324.0463853847156a325,325 0 0 1 -74.48952454299517,-2.8552476561023354Z" style="pointer-events: all; stroke-width: 0; fill: rgb(227, 119, 194); fill-opacity: 1; stroke: rgb(68, 68, 68); stroke-opacity: 1;"/><g class="slicetext"><text data-notex="1" class="slicetext" transform="translate(0,16.2263864876287)translate(459.4031740507386,816.0344747058464)translate(-0.140625,-3.296875)" text-anchor="middle" x="0" y="0" style="font-family: 'Open Sans', verdana, arial, sans-serif; font-size: 12px; fill: rgb(68, 68, 68); fill-opacity: 1; white-space: pre;"><tspan class="line" dy="0em" x="0" y="0">muscle</tspan><tspan class="line" dy="1.3em" x="0" y="0">3.66%</tspan></text></g><path class="textline" stroke-width="1.5" d="M487.5516115507386,799.7615088415132V832.2608611934751h-8.1484375" fill="none" style="stroke: rgb(68, 68, 68); stroke-opacity: 1;"/></g><g class="slice"><path class="surface" d="M500,475l98.0591945434374,309.8538274178525a325,325 0 0 1 -73.1806873715763,14.192557966863149Z" style="pointer-events: all; stroke-width: 0; fill: rgb(127, 127, 127); fill-opacity: 1; stroke: rgb(68, 68, 68); stroke-opacity: 1;"/><g class="slicetext"><text data-notex="1" class="slicetext" transform="translate(0,10.98044803357061)translate(586.9083604785171,809.76133725288)translate(-0.0546875,-3.296875)" text-anchor="middle" x="0" y="0" style="font-family: 'Open Sans', verdana, arial, sans-serif; font-size: 12px; fill: rgb(68, 68, 68); fill-opacity: 1; white-space: pre;"><tspan class="line" dy="0em" x="0" y="0">liver</tspan><tspan class="line" dy="1.3em" x="0" y="0">3.66%</tspan></text></g><path class="textline" stroke-width="1.5" d="M561.8771104785171,794.0552039989778V820.7417852864506h8.1484375" fill="none" style="stroke: rgb(68, 68, 68); stroke-opacity: 1;"/></g><g class="slice"><path class="surface" d="M500,475l155.2589410164855,285.51648154605624a325,325 0 0 1 -57.199746473048094,24.33734587179623Z" style="pointer-events: all; stroke-width: 0; fill: rgb(188, 189, 34); fill-opacity: 1; stroke: rgb(68, 68, 68); stroke-opacity: 1;"/><g class="slicetext"><text data-notex="1" class="slicetext" transform="translate(0,0.29335216519041296)translate(653.1953980538469,787.8546831212602)translate(-0.0078125,-3.296875)" text-anchor="middle" x="0" y="0" style="font-family: 'Open Sans', verdana, arial, sans-serif; font-size: 12px; fill: rgb(68, 68, 68); fill-opacity: 1; white-space: pre;"><tspan class="line" dy="0em" x="0" y="0">breast</tspan><tspan class="line" dy="1.3em" x="0" y="0">3.05%</tspan></text></g><path class="textline" stroke-width="1.5" d="M627.2422730538469,774.055854228086V788.1480352864506h8.1484375" fill="none" style="stroke: rgb(68, 68, 68); stroke-opacity: 1;"/></g><g class="slice"><path class="surface" d="M500,475l206.77879375613207,250.73398344213132a325,325 0 0 1 -51.51985273964658,34.78249810392492Z" style="pointer-events: all; stroke-width: 0; fill: rgb(23, 190, 207); fill-opacity: 1; stroke: rgb(68, 68, 68); stroke-opacity: 1;"/><g class="slicetext"><text data-notex="1" class="slicetext" transform="translate(706.8836239009458,755.5542852864506)translate(-0.0546875,-3.296875)" text-anchor="middle" x="0" y="0" style="font-family: 'Open Sans', verdana, arial, sans-serif; font-size: 12px; fill: rgb(68, 68, 68); fill-opacity: 1; white-space: pre;"><tspan class="line" dy="0em" x="0" y="0">lung</tspan><tspan class="line" dy="1.3em" x="0" y="0">3.05%</tspan></text></g></g><g class="slice"><path class="surface" d="M500,475l242.62979702388805,216.23085255380852a325,325 0 0 1 -35.85100326775597,34.5031308883228Z" style="pointer-events: all; stroke-width: 0; fill: rgb(87, 169, 226); fill-opacity: 1; stroke: rgb(68, 68, 68); stroke-opacity: 1;"/><g class="slicetext"><text data-notex="1" class="slicetext" transform="translate(759.2171252574788,717.630062851808)translate(-0.140625,-3.296875)" text-anchor="middle" x="0" y="0" style="font-family: 'Open Sans', verdana, arial, sans-serif; font-size: 12px; fill: rgb(68, 68, 68); fill-opacity: 1; white-space: pre;"><tspan class="line" dy="0em" x="0" y="0">pancreas</tspan><tspan class="line" dy="1.3em" x="0" y="0">2.44%</tspan></text></g></g><g class="slice"><path class="surface" d="M500,475l272.79376349288395,176.65945375039655a325,325 0 0 1 -30.16396646899591,39.57139880341197Z" style="pointer-events: all; stroke-width: 0; fill: rgb(255, 181, 116); fill-opacity: 1; stroke: rgb(68, 68, 68); stroke-opacity: 1;"/><g class="slicetext"><text data-notex="1" class="slicetext" transform="translate(790.2983081638638,678.0125108548515)translate(-0.1328125,-3.296875)" text-anchor="middle" x="0" y="0" style="font-family: 'Open Sans', verdana, arial, sans-serif; font-size: 12px; fill: rgb(68, 68, 68); fill-opacity: 1; white-space: pre;"><tspan class="line" dy="0em" x="0" y="0">prostate</tspan><tspan class="line" dy="1.3em" x="0" y="0">2.44%</tspan></text></g></g><g class="slice"><path class="surface" d="M500,475l296.56367535487897,132.947307080685a325,325 0 0 1 -23.769911861995013,43.71214666971156Z" style="pointer-events: all; stroke-width: 0; fill: rgb(95, 211, 95); fill-opacity: 1; stroke: rgb(68, 68, 68); stroke-opacity: 1;"/><g class="slicetext"><text data-notex="1" class="slicetext" transform="translate(826.4930440460564,633.978152308272)translate(0,-3.296875)" text-anchor="middle" x="0" y="0" style="font-family: 'Open Sans', verdana, arial, sans-serif; font-size: 12px; fill: rgb(68, 68, 68); fill-opacity: 1; white-space: pre;"><tspan class="line" dy="0em" x="0" y="0">esc_derived</tspan><tspan class="line" dy="1.3em" x="0" y="0">2.44%</tspan></text></g></g><g class="slice"><path class="surface" d="M500,475l313.38238602227096,86.11898821391446a325,325 0 0 1 -16.818710667391997,46.82831886677053Z" style="pointer-events: all; stroke-width: 0; fill: rgb(231, 124, 124); fill-opacity: 1; stroke: rgb(68, 68, 68); stroke-opacity: 1;"/><g class="slicetext"><text data-notex="1" class="slicetext" transform="translate(830.9017655933577,586.7174916190576)translate(-0.0546875,-3.296875)" text-anchor="middle" x="0" y="0" style="font-family: 'Open Sans', verdana, arial, sans-serif; font-size: 12px; fill: rgb(68, 68, 68); fill-opacity: 1; white-space: pre;"><tspan class="line" dy="0em" x="0" y="0">heart</tspan><tspan class="line" dy="1.3em" x="0" y="0">2.44%</tspan></text></g></g><g class="slice"><path class="surface" d="M500,475l321.1911377286134,49.61101737113353a325,325 0 0 1 -7.808751706342434,36.507970842780935Z" style="pointer-events: all; stroke-width: 0; fill: rgb(198, 174, 220); fill-opacity: 1; stroke: rgb(68, 68, 68); stroke-opacity: 1;"/><g class="slicetext"><text data-notex="1" class="slicetext" transform="translate(857.8192302388344,543.6901811362167)translate(-0.140625,-3.296875)" text-anchor="middle" x="0" y="0" style="font-family: 'Open Sans', verdana, arial, sans-serif; font-size: 12px; fill: rgb(68, 68, 68); fill-opacity: 1; white-space: pre;"><tspan class="line" dy="0em" x="0" y="0">gi_intestine</tspan><tspan class="line" dy="1.3em" x="0" y="0">1.83%</tspan></text></g></g></g></g><g class="glimages"/><defs id="topdefs-db14b0"><g class="clips"/></defs><g class="layer-above"><g class="imagelayer"/><g class="shapelayer"/></g><g class="infolayer"><g class="g-gtitle"><text class="gtitle" x="500" y="75" text-anchor="middle" style="font-family: 'Open Sans', verdana, arial, sans-serif; font-size: 17px; fill: rgb(68, 68, 68); opacity: 1; font-weight: normal; white-space: pre;">Tissue</text></g></g></svg>